<svg width="100" height="101" viewBox="0 0 100 101" fill="none" xmlns="http://www.w3.org/2000/svg">
    <path d="M22.0695 37.1563C0.73192 46.1298 70.2511 42.6401 70.2511 42.6401C70.2511 42.6401 56.8291 44.1357 70.9394 50.118C85.0498 56.1003 22.0695 50.118 22.0695 50.118C22.0695 50.118 43.4071 28.1829 22.0695 37.1563Z" fill="white"/>
    <path fill-rule="evenodd" clip-rule="evenodd" d="M28.6458 43.5471C32.4744 38.2797 34.4163 33.1232 22.0695 38.3156C14.104 41.6654 18.8002 43.2785 27.8148 43.9845C27.974 43.997 28.1346 44.0092 28.2965 44.0211C28.1788 44.1788 28.0597 44.3364 27.9395 44.4935C25.8595 47.2134 23.4718 49.7981 22.5074 50.8187C22.2293 51.113 22.0695 51.2772 22.0695 51.2772C22.0695 51.2772 22.2571 51.2951 22.6095 51.3278C28.7144 51.8946 84.2797 56.933 70.9394 51.2772C61.623 47.3274 64.309 45.3335 67.2094 44.4345C68.7019 43.972 70.2511 43.7994 70.2511 43.7994C70.2511 43.7994 69.1112 43.8566 67.168 43.9375C59.7995 44.2445 40.881 44.8926 28.7757 44.0553C28.6147 44.0442 28.455 44.0328 28.2965 44.0211C28.4144 43.8632 28.531 43.7051 28.6458 43.5471ZM28.169 43.5125C28.7737 42.6961 29.3375 41.8792 29.8135 41.1008C30.4748 40.0192 30.9371 39.0583 31.1222 38.306C31.2138 37.9337 31.2251 37.6612 31.1911 37.4693C31.1607 37.2972 31.0845 37.1342 30.9058 36.9923C30.7166 36.8419 30.4177 36.7218 29.9692 36.6769C29.5242 36.6323 28.9537 36.6638 28.2376 36.791C26.8052 37.0453 24.8248 37.676 22.1655 38.7943C20.8387 39.3523 19.8818 39.8552 19.2449 40.3042C18.926 40.529 18.6996 40.7319 18.5499 40.9095C18.3949 41.0935 18.3542 41.2123 18.346 41.2566C18.3459 41.2571 18.3457 41.2578 18.3455 41.2586C18.3434 41.2668 18.3381 41.287 18.3749 41.3511C18.4265 41.4411 18.5371 41.5644 18.7396 41.7032C19.1411 41.9782 19.7857 42.2359 20.6582 42.4677C22.4405 42.9415 25.0546 43.279 28.169 43.5125ZM28.4235 44.5295C27.3955 45.8963 26.2776 47.2385 25.284 48.3806C24.447 49.3428 23.6938 50.1679 23.1497 50.7526C23.1128 50.7922 23.0769 50.8308 23.042 50.8682C23.4813 50.9087 24.0637 50.9618 24.7694 51.025C26.4635 51.1769 28.8679 51.3871 31.7092 51.6208C37.3921 52.0881 44.8211 52.6487 51.8086 53.0224C58.8004 53.3964 65.3361 53.5823 69.2393 53.3031C70.2148 53.2333 71.0176 53.135 71.6186 53.0056C71.9193 52.9408 72.1625 52.8697 72.3483 52.7938C72.4305 52.7602 72.4959 52.7278 72.547 52.6982C72.5426 52.6941 72.538 52.6899 72.5332 52.6855C72.2635 52.4408 71.7237 52.1292 70.8428 51.7557C69.0715 51.0047 67.7234 50.3206 66.7225 49.6962C65.7282 49.076 65.0512 48.4996 64.6443 47.9495C64.2362 47.3978 64.0302 46.7633 64.1982 46.1085C64.3454 45.5354 64.7433 45.1356 65.1534 44.8466C65.3338 44.7195 65.5341 44.602 65.7475 44.4937C64.0832 44.5592 62.0339 44.6332 59.7293 44.7028C53.5437 44.8898 45.5164 45.0457 38.1547 44.921C34.6806 44.8621 31.3476 44.7408 28.4235 44.5295Z" fill="#2A2A2A"/>
    <path d="M22.0695 53.1091L36.5843 66.0708L45.8765 60.587L55.857 56.1003H68.9349L63.4284 63.5782L70.9395 70.059L58.2661 71.5546L46.909 67.5664L36.5843 72.5516L22.0695 70.059V53.1091Z" fill="white"/>
    <path fill-rule="evenodd" clip-rule="evenodd" d="M24 54L36.8072 65.6385L44.6156 60.9492L53.2641 56.9926H65.159L60.2406 63.7898L67 69.725L55.3644 71.1223L45.6593 67.6541L36.8149 72L24 69.7605V54ZM24.6014 55.367V69.2446L36.7268 71.3637L45.6228 66.9924L55.4322 70.4979L65.5728 69.2801L59.4262 63.8831L63.9694 57.6046H53.3931L44.8925 61.4935L36.7345 66.3929L24.6014 55.367Z" fill="#2A2A2A"/>
    <rect x="22.8699" y="79.8571" width="48.8699" height="7.14286" fill="#2A2A2A"/>
    <rect x="21" y="77" width="48.8699" height="7.14286" fill="white"/>
</svg>
