<svg width="55" height="55" viewBox="0 0 55 55" fill="none" xmlns="http://www.w3.org/2000/svg">
    <path d="M4.06951 2.15631C-17.2681 11.1298 52.2511 7.6401 52.2511 7.6401C52.2511 7.6401 38.8291 9.13567 52.9394 15.118C67.0498 21.1003 4.06951 15.118 4.06951 15.118C4.06951 15.118 25.4071 -6.81715 4.06951 2.15631Z" fill="currentColor"/>
    <path fill-rule="evenodd" clip-rule="evenodd" d="M10.6458 8.54713C14.4744 3.27973 16.4163 -1.87682 4.0695 3.31559C-3.89599 6.66545 0.80023 8.27847 9.81478 8.98456C9.97403 8.99703 10.1346 9.00922 10.2965 9.02114C10.1788 9.17885 10.0597 9.33639 9.93954 9.49348C7.85947 12.2135 5.47184 14.7981 4.50735 15.8187C4.22928 16.113 4.0695 16.2772 4.0695 16.2772C4.0695 16.2772 4.2571 16.2951 4.60952 16.3278C10.7144 16.8946 66.2797 21.9331 52.9394 16.2772C43.623 12.3274 46.309 10.3335 49.2094 9.43455C50.7019 8.972 52.2511 8.79937 52.2511 8.79937C52.2511 8.79937 51.1112 8.85659 49.168 8.93754C41.7995 9.2445 22.881 9.89262 10.7757 9.05532C10.6147 9.04419 10.455 9.0328 10.2965 9.02114C10.4144 8.86322 10.531 8.70513 10.6458 8.54713ZM10.169 8.51248C10.7737 7.69613 11.3375 6.87924 11.8135 6.10083C12.4748 5.01924 12.9371 4.05834 13.1222 3.30599C13.2138 2.93367 13.2251 2.66125 13.1911 2.46928C13.1607 2.29718 13.0845 2.13425 12.9058 1.99228C12.7166 1.84196 12.4177 1.72181 11.9692 1.67691C11.5242 1.63235 10.9537 1.66384 10.2376 1.79099C8.80521 2.04533 6.8248 2.67597 4.16546 3.79434C2.83874 4.35229 1.8818 4.85518 1.24489 5.30421C0.925987 5.52903 0.699631 5.73188 0.549882 5.90956C0.394885 6.09347 0.354207 6.21231 0.346024 6.25657C0.345915 6.25716 0.345738 6.25783 0.345532 6.25861C0.343372 6.26683 0.338061 6.28703 0.374872 6.35114C0.426509 6.44107 0.537053 6.5644 0.739631 6.70317C1.14109 6.97818 1.78572 7.23587 2.6582 7.46777C4.44051 7.94148 7.05461 8.27905 10.169 8.51248ZM10.4235 9.52956C9.39551 10.8963 8.27758 12.2385 7.28403 13.3806C6.44697 14.3428 5.69376 15.1679 5.14974 15.7526C5.11285 15.7923 5.07691 15.8308 5.04198 15.8682C5.48133 15.9087 6.06373 15.9618 6.76939 16.025C8.46347 16.1769 10.8679 16.3872 13.7092 16.6208C19.3921 17.0881 26.8211 17.6487 33.8086 18.0224C40.8004 18.3964 47.3361 18.5823 51.2393 18.3031C52.2148 18.2333 53.0176 18.135 53.6186 18.0056C53.9193 17.9408 54.1625 17.8697 54.3483 17.7938C54.4305 17.7602 54.4959 17.7278 54.547 17.6983C54.5426 17.6941 54.538 17.6899 54.5332 17.6856C54.2635 17.4408 53.7237 17.1292 52.8428 16.7557C51.0715 16.0047 49.7234 15.3206 48.7225 14.6962C47.7282 14.076 47.0512 13.4996 46.6443 12.9495C46.2362 12.3978 46.0302 11.7634 46.1982 11.1085C46.3454 10.5354 46.7433 10.1356 47.1534 9.84665C47.3338 9.71948 47.5341 9.60206 47.7475 9.49375C46.0832 9.55918 44.0339 9.63317 41.7293 9.70284C35.5437 9.88983 27.5164 10.0457 20.1547 9.92102C16.6806 9.86216 13.3476 9.74081 10.4235 9.52956Z" fill="#2A2A2A"/>
    <path d="M4.0695 18.1091L18.5843 31.0708L27.8765 25.587L37.857 21.1003H50.9349L45.4284 28.5782L52.9395 35.059L40.2661 36.5546L28.909 32.5664L18.5843 37.5516L4.0695 35.059V18.1091Z" fill="currentColor"/>
    <path fill-rule="evenodd" clip-rule="evenodd" d="M6 19L18.8072 30.6385L26.6156 25.9492L35.2641 21.9926H47.159L42.2406 28.7898L49 34.725L37.3644 36.1223L27.6593 32.6541L18.8149 37L6 34.7605V19ZM6.60139 20.367V34.2446L18.7268 36.3637L27.6228 31.9924L37.4322 35.4979L47.5728 34.2801L41.4262 28.8831L45.9694 22.6046H35.3931L26.8925 26.4935L18.7345 31.3929L6.60139 20.367Z" fill="#2A2A2A"/>
    <rect x="4.86995" y="44.8571" width="48.8699" height="7.14286" fill="#2A2A2A"/>
    <rect x="3" y="42" width="48.8699" height="7.14286" fill="currentColor"/>
</svg>
